# xmcd
#
# Track frame offsets:
#	150
#	7292
#	29527
#	51094
#	63104
#	75303
#	93675
#	118990
#	128909
#	136760
#	162750
#	175921
#	213049
#	217205
#
# Disc length: 3127 seconds
#
# Revision: 1
# Processed by: cddbd v1.5.2PL0 Copyright (c) Steve Scherf et al.
# Submitted via: audiograbber 1.83.01
#
DISCID=c40c350e
DTITLE=ManicM - The Wrong side of the Fence
DYEAR=2008
DGENRE=Computer Blues
TTITLE0=Intro
TTITLE1=The Wrong Side of the Fence
TTITLE2=Deleted Scenes
TTITLE3=Kylie's Blues
TTITLE4=Some Day Soon
TTITLE5=Doing Time
TTITLE6=Hank
TTITLE7=Redgreenblues
TTITLE8=Bekkintooh
TTITLE9=Imbalance
TTITLE10=Parasight
TTITLE11=Strolling Down the Highway
TTITLE12=Reprise
TTITLE13=It's Gone
EXTD=U-lit Records\nhttp://www.u-lit.com
EXTT0=
EXTT1=
EXTT2=
EXTT3=
EXTT4=
EXTT5=
EXTT6=
EXTT7=
EXTT8=
EXTT9=
EXTT10=
EXTT11=
EXTT12=
EXTT13=
PLAYORDER=
